<svg width="638" height="384" viewBox="0 0 638 384" fill="none" xmlns="http://www.w3.org/2000/svg">
<g clip-path="url(#clip0_3_92)">
<path d="M62.8 381.95C95.6057 381.95 122.2 378.118 122.2 373.39C122.2 368.662 95.6057 364.83 62.8 364.83C29.9943 364.83 3.40002 368.662 3.40002 373.39C3.40002 378.118 29.9943 381.95 62.8 381.95Z" fill="#263238" stroke="#263238" stroke-width="2.5" stroke-linecap="round" stroke-linejoin="round"/>
<path d="M435.68 11.95H444.02C452.46 11.95 459.31 18.8 459.31 27.24V33.49" stroke="#17222E" stroke-width="1.5" stroke-linecap="round" stroke-linejoin="round"/>
<path d="M409.27 3.61H462.09" stroke="#17222E" stroke-width="1.5" stroke-linecap="round" stroke-linejoin="round"/>
<path d="M435.68 12.3V17.86C435.68 24 430.7 28.98 424.56 28.98H416.91M435.68 12.3V5.35M435.68 12.3H425.96C419.81 12.3 414.83 17.28 414.83 23.43C414.83 29.58 419.81 34.56 425.96 34.56H477.37C478.91 34.56 480.15 33.32 480.15 31.78V24.11C480.15 22.19 478.59 20.64 476.68 20.64C474.76 20.64 473.21 22.2 473.21 24.11V27.58H447.49C443.27 27.58 439.85 31 439.85 35.22" stroke="#17222E" stroke-width="1.5" stroke-linecap="round" stroke-linejoin="round"/>
<path d="M421.78 42.53H448.88" stroke="#17222E" stroke-width="1.5" stroke-linecap="round" stroke-linejoin="round"/>
<path d="M439.86 35.58V42.53" stroke="#17222E" stroke-width="1.5" stroke-linecap="round" stroke-linejoin="round"/>
<path d="M430.13 35.58V42.53" stroke="#17222E" stroke-width="1.5" stroke-linecap="round" stroke-linejoin="round"/>
<path d="M499.62 23.07H530.2M495.45 31.41H505.18M492.67 14.73H514.91" stroke="#17222E" stroke-width="1.5" stroke-linecap="round" stroke-linejoin="round"/>
<path d="M304.74 13.28C304.74 8.78 291.18 7.76 291.18 7.76C291.18 7.76 280.2 8.43 280.2 12.92C280.2 17.42 278.43 18.89 291.2 20.1C300.15 20.95 304.74 17.77 304.74 13.28Z" fill="#91B8FC"/>
<path d="M575.4 57.14C575.32 60.95 580.93 62.26 585.23 62.04C588.81 61.85 593.29 61.66 593.37 57.85C593.45 54.04 589.39 52.07 585.45 51.59C578.05 50.68 575.49 53.34 575.41 57.15L575.4 57.14Z" fill="#91B8FC"/>
<path d="M281.01 14.67C276.14 14.67 275.89 10.87 276.23 10.04C279.3 2.7 285.7 6.42 287.45 4.48C288.35 3.47 288.63 3.33 289.69 2.53C293.77 -0.56 296.62 5.83 299.75 2.35C301.27 0.65 306.43 0.59 307.7 4.71C308.83 8.43 311.77 6.47 314.04 8.19C315.89 9.59 318.16 11.4 316.32 13.62C314.84 15.4 310.82 14.73 307.92 14.65C296.85 14.32 292.05 14.65 281.01 14.67Z" stroke="#17222E" stroke-width="1.5" stroke-linecap="round" stroke-linejoin="round"/>
<path d="M572.8 56.75C569.11 56.75 569.26 54.36 569.8 52.75C571.06 49 576.75 50.38 578.22 49C578.77 48.46 579.35 47.97 579.98 47.52C583.21 45.22 585.05 50.11 587.55 47.43C588.75 46.14 592.62 46.14 593.36 49.28C594.01 52.05 597.61 50.89 598.3 52.75C599.25 55.34 595.69 56.75 592.8 56.75H572.8Z" stroke="#17222E" stroke-width="1.5" stroke-linecap="round" stroke-linejoin="round"/>
<path d="M559.81 0.75V4.66M559.81 8.75V12.75M565.81 6.75H561.9M557.71 6.75H553.8" stroke="#17222E" stroke-width="1.5" stroke-linecap="round" stroke-linejoin="round"/>
<path d="M625.951 227.19C640.531 211.037 639.256 186.123 623.103 171.543C606.95 156.963 582.036 158.238 567.456 174.391C552.876 190.544 554.151 215.458 570.304 230.038C586.457 244.618 611.371 243.343 625.951 227.19Z" stroke="#263238" stroke-width="3.02" stroke-linecap="round" stroke-linejoin="round"/>
<path d="M623.3 212.747C629.909 198.049 623.351 180.776 608.652 174.167C593.954 167.559 576.681 174.117 570.073 188.815C563.464 203.513 570.022 220.786 584.72 227.395C599.418 234.003 616.691 227.445 623.3 212.747Z" stroke="#263238" stroke-width="3.02" stroke-linecap="round" stroke-linejoin="round"/>
<path d="M596.7 186.63V204.58L588.32 212.26" stroke="#263238" stroke-width="3.02" stroke-linecap="round" stroke-linejoin="round"/>
<path d="M1.25 327.32H546.5" stroke="#263238" stroke-width="2.5" stroke-linecap="round" stroke-linejoin="round"/>
<path d="M99.92 313.19H42.85V373.79H99.92V313.19Z" fill="#9ABAE3" stroke="#263238" stroke-width="2.5" stroke-linecap="round" stroke-linejoin="round"/>
<path d="M67.73 266.72C67.73 266.72 59.09 265.59 53.69 262.18C47.18 258.07 45.94 252.34 46.18 251.86C46.18 251.86 58.28 242.43 64.93 249.93C68.08 253.48 67.73 266.72 67.73 266.72Z" fill="#EC644E" stroke="#263238" stroke-width="2.5" stroke-linecap="round" stroke-linejoin="round"/>
<path d="M68.6 259.78C68.6 259.78 80.31 255.86 87.01 249.29C95.09 241.37 95.48 232.33 95.03 231.66C95.03 231.66 76.09 220.36 68.6 233.47C65.06 239.67 68.6 259.77 68.6 259.77V259.78Z" fill="#EC644E" stroke="#263238" stroke-width="2.5" stroke-linecap="round" stroke-linejoin="round"/>
<path d="M33.66 284.87C33.66 284.87 40.32 295.27 48.33 300.15C57.99 306.04 66.85 304.22 67.38 303.62C67.38 303.62 73.71 282.49 59.16 278.44C52.28 276.52 33.66 284.87 33.66 284.87Z" fill="#EC644E" stroke="#263238" stroke-width="2.5" stroke-linecap="round" stroke-linejoin="round"/>
<path d="M92.75 275.95C92.75 275.95 87.92 283.2 82.47 286.54C75.9 290.56 70.22 289.15 69.9 288.71C69.9 288.71 66.79 273.69 76.46 271.03C81.03 269.77 92.76 275.95 92.76 275.95H92.75Z" fill="#EC644E" stroke="#263238" stroke-width="2.5" stroke-linecap="round" stroke-linejoin="round"/>
<path d="M68.6 311.22V259.78C68.6 259.78 68.33 247.74 74.16 240.53C78.18 235.56 83.58 236.07 83.58 236.07" stroke="#263238" stroke-width="2.5" stroke-linecap="round" stroke-linejoin="round"/>
<path d="M68.72 313.17C68.28 303.14 65.35 292.02 53.79 290.45" stroke="#263238" stroke-width="2.5" stroke-linecap="round" stroke-linejoin="round"/>
<path d="M42.84 321.88L99.92 321.87" stroke="#263238" stroke-width="2.5" stroke-linecap="round" stroke-linejoin="round"/>
<path d="M42.84 333.9L99.92 333.88" stroke="#263238" stroke-width="2.5" stroke-linecap="round" stroke-linejoin="round"/>
<path d="M520.51 71.84H150.79C144.77 71.84 139.89 76.7201 139.89 82.74V298.63C139.89 304.65 144.77 309.53 150.79 309.53H520.51C526.53 309.53 531.41 304.65 531.41 298.63V82.74C531.41 76.7201 526.53 71.84 520.51 71.84Z" fill="#9ABAE3"/>
<path d="M143.56 304.95V83.42C143.56 78.96 147.18 75.34 151.64 75.34H527.01C527.58 75.34 528.13 75.4 528.66 75.51C526.66 73.26 523.76 71.84 520.52 71.84H150.79C144.77 71.84 139.89 76.72 139.89 82.74V298.62C139.89 302 141.42 305.01 143.83 307.01C143.66 306.35 143.55 305.66 143.55 304.95H143.56Z" fill="white"/>
<path d="M520.51 71.84H150.79C144.77 71.84 139.89 76.7201 139.89 82.74V298.63C139.89 304.65 144.77 309.53 150.79 309.53H520.51C526.53 309.53 531.41 304.65 531.41 298.63V82.74C531.41 76.7201 526.53 71.84 520.51 71.84Z" stroke="#263238" stroke-width="2.5" stroke-linecap="round" stroke-linejoin="round"/>
<path d="M548.43 309.54H122.86V327.32H548.43V309.54Z" fill="#9ABAE3" stroke="#263238" stroke-width="2.5" stroke-linecap="round" stroke-linejoin="round"/>
<path d="M196.28 309.53H191.17V327.32H196.28V309.53Z" fill="#263238" stroke="#263238" stroke-width="2.5" stroke-linecap="round" stroke-linejoin="round"/>
<path d="M208.71 309.53H203.6V327.32H208.71V309.53Z" fill="#263238" stroke="#263238" stroke-width="2.5" stroke-linecap="round" stroke-linejoin="round"/>
<path d="M221.13 309.53H216.02V327.32H221.13V309.53Z" fill="#263238" stroke="#263238" stroke-width="2.5" stroke-linecap="round" stroke-linejoin="round"/>
<path d="M233.56 309.53H228.45V327.32H233.56V309.53Z" fill="#263238" stroke="#263238" stroke-width="2.5" stroke-linecap="round" stroke-linejoin="round"/>
<path d="M245.99 309.53H240.88V327.32H245.99V309.53Z" fill="#263238" stroke="#263238" stroke-width="2.5" stroke-linecap="round" stroke-linejoin="round"/>
<path d="M516.77 81.38H154.53C151.796 81.38 149.58 83.5962 149.58 86.33V295.03C149.58 297.764 151.796 299.98 154.53 299.98H516.77C519.504 299.98 521.72 297.764 521.72 295.03V86.33C521.72 83.5962 519.504 81.38 516.77 81.38Z" fill="white" stroke="#263238" stroke-width="2.5" stroke-linecap="round" stroke-linejoin="round"/>
<path d="M506.9 100.47H504.99V95.47H483.71V109.8H504.99V104.8H506.9V100.47Z" fill="white" stroke="#263238" stroke-width="2.5" stroke-linecap="round" stroke-linejoin="round"/>
<path d="M497.23 98.8H486.9V106.13H497.23V98.8Z" fill="#EC644E" stroke="#263238" stroke-width="2.5" stroke-linecap="round" stroke-linejoin="round"/>
<path d="M284.6 273.79H322.64" stroke="#263238" stroke-width="2.5" stroke-linecap="round" stroke-linejoin="round"/>
<path d="M346.61 273.79H384.65" stroke="#EC644E" stroke-width="2.5" stroke-linecap="round" stroke-linejoin="round"/>
<path d="M355.24 258.69H314.02C307.56 258.69 302.32 253.45 302.32 246.99C302.32 240.53 307.56 235.29 314.02 235.29H355.24C361.7 235.29 366.94 240.53 366.94 246.99C366.94 253.45 361.7 258.69 355.24 258.69Z" fill="#EC644E" stroke="#263238" stroke-width="2.5" stroke-linecap="round" stroke-linejoin="round"/>
<path d="M319.11 246.99H352.4" stroke="#263238" stroke-width="2.5" stroke-linecap="round" stroke-linejoin="round"/>
<path d="M388.8 189.17H280.44C273.98 189.17 268.74 183.93 268.74 177.47C268.74 171.01 273.98 165.77 280.44 165.77H388.8C395.26 165.77 400.5 171.01 400.5 177.47C400.5 183.93 395.26 189.17 388.8 189.17Z" fill="white" stroke="#263238" stroke-width="2.5" stroke-linecap="round" stroke-linejoin="round"/>
<path d="M388.8 223.66H280.44C273.98 223.66 268.74 218.42 268.74 211.96C268.74 205.5 273.98 200.26 280.44 200.26H388.8C395.26 200.26 400.5 205.5 400.5 211.96C400.5 218.42 395.26 223.66 388.8 223.66Z" fill="white" stroke="#263238" stroke-width="2.5" stroke-linecap="round" stroke-linejoin="round"/>
<path d="M279.75 177.47H317.79" stroke="#263238" stroke-width="2.5" stroke-linecap="round" stroke-linejoin="round"/>
<path d="M287.77 215.01C288.991 215.01 289.98 214.021 289.98 212.8C289.98 211.579 288.991 210.59 287.77 210.59C286.549 210.59 285.56 211.579 285.56 212.8C285.56 214.021 286.549 215.01 287.77 215.01Z" fill="#EC644E" stroke="#EC644E" stroke-width="2.5" stroke-linecap="round" stroke-linejoin="round"/>
<path d="M300.98 212.8C300.98 214.02 299.99 215.01 298.77 215.01C297.55 215.01 296.56 214.02 296.56 212.8C296.56 211.58 297.55 210.59 298.77 210.59C299.99 210.59 300.98 211.58 300.98 212.8Z" fill="#EC644E" stroke="#EC644E" stroke-width="2.5" stroke-linecap="round" stroke-linejoin="round"/>
<path d="M309.77 215.01C310.991 215.01 311.98 214.021 311.98 212.8C311.98 211.579 310.991 210.59 309.77 210.59C308.549 210.59 307.56 211.579 307.56 212.8C307.56 214.021 308.549 215.01 309.77 215.01Z" fill="#EC644E" stroke="#EC644E" stroke-width="2.5" stroke-linecap="round" stroke-linejoin="round"/>
<path d="M322.98 212.8C322.98 214.02 321.99 215.01 320.77 215.01C319.55 215.01 318.56 214.02 318.56 212.8C318.56 211.58 319.55 210.59 320.77 210.59C321.99 210.59 322.98 211.58 322.98 212.8Z" fill="#EC644E" stroke="#EC644E" stroke-width="2.5" stroke-linecap="round" stroke-linejoin="round"/>
<path d="M331.78 215.01C333.001 215.01 333.99 214.021 333.99 212.8C333.99 211.579 333.001 210.59 331.78 210.59C330.559 210.59 329.57 211.579 329.57 212.8C329.57 214.021 330.559 215.01 331.78 215.01Z" fill="#EC644E" stroke="#EC644E" stroke-width="2.5" stroke-linecap="round" stroke-linejoin="round"/>
<path d="M342.78 215.01C344.001 215.01 344.99 214.021 344.99 212.8C344.99 211.579 344.001 210.59 342.78 210.59C341.559 210.59 340.57 211.579 340.57 212.8C340.57 214.021 341.559 215.01 342.78 215.01Z" fill="#EC644E" stroke="#EC644E" stroke-width="2.5" stroke-linecap="round" stroke-linejoin="round"/>
<path d="M352.09 124.27C352.09 129.99 349.35 135.07 345.1 138.26C342.18 140.44 338.55 141.74 334.62 141.74C330.69 141.74 327.26 140.51 324.38 138.43C320 135.26 317.15 130.1 317.15 124.27C317.15 114.62 324.97 106.8 334.62 106.8C344.27 106.8 352.09 114.62 352.09 124.27Z" fill="white" stroke="#263238" stroke-width="2.5" stroke-linecap="round" stroke-linejoin="round"/>
<path d="M338.58 119.52C338.58 121.71 336.81 123.48 334.62 123.48C332.43 123.48 330.66 121.71 330.66 119.52C330.66 117.33 332.43 115.56 334.62 115.56C336.81 115.56 338.58 117.33 338.58 119.52Z" fill="#EC644E" stroke="#263238" stroke-width="2.5" stroke-linecap="round" stroke-linejoin="round"/>
<path d="M345.43 136.93L345 138.26C342.08 140.44 338.45 141.74 334.52 141.74C330.59 141.74 327.16 140.51 324.28 138.43L323.8 136.93C324.7 131.77 329.19 127.85 334.6 127.85C340.01 127.85 344.52 131.77 345.41 136.93H345.43Z" fill="#EC644E" stroke="#263238" stroke-width="2.5" stroke-linecap="round" stroke-linejoin="round"/>
<path d="M313.24 157.11V148.22H315.22V155.34H319.01V157.11H313.23H313.24Z" fill="#263238"/>
<path d="M327.71 155.88C326.81 156.76 325.7 157.2 324.39 157.2C323.08 157.2 321.97 156.76 321.07 155.88C320.17 155 319.72 153.91 319.72 152.6C319.72 151.29 320.17 150.2 321.07 149.32C321.97 148.44 323.08 148 324.39 148C325.7 148 326.81 148.44 327.71 149.32C328.61 150.2 329.06 151.29 329.06 152.6C329.06 153.91 328.61 155 327.71 155.88ZM327.03 152.61C327.03 151.82 326.78 151.14 326.27 150.58C325.76 150.02 325.14 149.74 324.39 149.74C323.64 149.74 323.02 150.02 322.51 150.58C322 151.14 321.75 151.82 321.75 152.61C321.75 153.4 322.01 154.08 322.51 154.63C323.02 155.19 323.64 155.46 324.39 155.46C325.14 155.46 325.76 155.18 326.27 154.63C326.78 154.07 327.03 153.4 327.03 152.61Z" fill="#263238"/>
<path d="M336.51 152.58H338.51V155.73C337.63 156.71 336.41 157.21 334.85 157.21C333.54 157.21 332.45 156.78 331.56 155.91C330.67 155.05 330.23 153.95 330.23 152.63C330.23 151.31 330.68 150.21 331.58 149.33C332.48 148.45 333.57 148.01 334.85 148.01C336.13 148.01 337.24 148.43 338.18 149.27L337.15 150.76C336.75 150.41 336.39 150.17 336.05 150.04C335.71 149.91 335.35 149.84 334.96 149.84C334.2 149.84 333.57 150.1 333.05 150.61C332.53 151.12 332.27 151.8 332.27 152.64C332.27 153.48 332.52 154.15 333.01 154.66C333.51 155.16 334.1 155.42 334.78 155.42C335.46 155.42 336.04 155.29 336.5 155.03V152.59L336.51 152.58Z" fill="#263238"/>
<path d="M343.63 148.22H345.61V157.11H343.63V148.22Z" fill="#263238"/>
<path d="M354.02 148.22H356.01V157.11H354.02L349.78 151.54V157.11H347.8V148.22H349.66L354.02 153.94V148.22Z" fill="#263238"/>
<path d="M203.18 61.59H109.29C103.806 61.59 99.36 66.0358 99.36 71.52V152.32C99.36 157.804 103.806 162.25 109.29 162.25H203.18C208.664 162.25 213.11 157.804 213.11 152.32V71.52C213.11 66.0358 208.664 61.59 203.18 61.59Z" fill="white" stroke="#263238" stroke-width="2.5" stroke-linecap="round" stroke-linejoin="round"/>
<path d="M133.99 106.63H80.8C79.19 93.46 71.22 84.45 61.62 84.45C50.86 84.45 42.14 96.03 42.14 111.55C42.14 127.07 50.86 138.65 61.62 138.65C71.21 138.65 79.18 129.64 80.8 116.47H114.47V123.66C114.47 125.68 116.12 127.33 118.14 127.33C120.16 127.33 121.81 125.68 121.81 123.66V116.47H128.14V123.66C128.14 125.68 129.79 127.33 131.81 127.33C133.83 127.33 135.48 125.68 135.48 123.66V116.22C137.47 115.59 138.92 113.75 138.92 111.55C138.92 108.83 136.72 106.63 134 106.63H133.99ZM61.62 129.12C54.89 129.12 49.44 121.25 49.44 111.55C49.44 101.85 54.89 93.98 61.62 93.98C68.35 93.98 73.8 101.85 73.8 111.55C73.8 121.25 68.35 129.12 61.62 129.12Z" fill="#EC644E" stroke="#263238" stroke-width="2.5" stroke-linecap="round" stroke-linejoin="round"/>
<path d="M80.8 106.63V112.33" stroke="#263238" stroke-width="2.5" stroke-linecap="round" stroke-linejoin="round"/>
<path d="M117.97 116.33H132.3" stroke="#263238" stroke-width="2.5" stroke-linecap="round" stroke-linejoin="round"/>
<path d="M165.84 103.39C165.84 98.08 161.54 93.78 156.23 93.78C150.92 93.78 146.62 98.08 146.62 103.39C146.62 106.7 148.3 109.62 150.85 111.35V128.4C150.85 131.36 153.27 133.78 156.23 133.78C159.19 133.78 161.61 131.36 161.61 128.4V111.35C164.16 109.62 165.84 106.7 165.84 103.39Z" fill="#263238" stroke="#263238" stroke-width="2.5" stroke-linecap="round" stroke-linejoin="round"/>
<path d="M174.6 42.43V52.97H186.61V42.43C186.61 14.38 169.56 4.43 154.95 4.43C140.34 4.43 123.29 14.38 123.29 42.43V60.72C123.29 61.06 123.32 61.39 123.38 61.71H135.21C135.26 61.39 135.3 61.06 135.3 60.72V42.43C135.3 25.91 142.46 16.44 154.94 16.44C167.42 16.44 174.58 25.91 174.58 42.43H174.6Z" fill="#9ABAE3" stroke="#263238" stroke-width="2.5" stroke-linecap="round" stroke-linejoin="round"/>
<path d="M61.62 148.02V151.02" stroke="#EC644E" stroke-width="2.5" stroke-linecap="round" stroke-linejoin="round"/>
<path d="M61.62 157.1V196.9C61.62 206.85 69.68 214.91 79.63 214.91H251.76" stroke="#EC644E" stroke-width="2.5" stroke-linecap="round" stroke-linejoin="round"/>
<path d="M254.81 214.91H257.81" stroke="#EC644E" stroke-width="2.5" stroke-linecap="round" stroke-linejoin="round"/>
<path d="M482.74 246.24V243.24" stroke="#EC644E" stroke-width="2.5" stroke-linecap="round" stroke-linejoin="round"/>
<path d="M482.74 236.89V230.06C482.74 220.11 474.68 212.05 464.73 212.05H414.11" stroke="#EC644E" stroke-width="2.5" stroke-linecap="round" stroke-linejoin="round"/>
<path d="M410.94 212.04H407.94" stroke="#EC644E" stroke-width="2.5" stroke-linecap="round" stroke-linejoin="round"/>
</g>
<defs>
<clipPath id="clip0_3_92">
<rect width="637.62" height="383.2" fill="white"/>
</clipPath>
</defs>
</svg>
